<svg xmlns="http://www.w3.org/2000/svg" viewBox="0 0 135 56.66"><defs><style>.cls-1{font-size:23px;font-family:MyriadPro-Regular, Myriad Pro;}.cls-1,.cls-4,.cls-6{fill:#fff;}.cls-2{fill:#2b3990;stroke:#2b3990;}.cls-2,.cls-3,.cls-4,.cls-5{stroke-miterlimit:10;}.cls-3,.cls-5{fill:none;}.cls-3,.cls-4{stroke:#fff;}.cls-3{stroke-width:2px;}.cls-5{stroke:#262262;}</style></defs><title>logo-final_1</title><g id="Lag_2" data-name="Lag 2"><g id="Lag_1-2" data-name="Lag 1"><text class="cls-1" transform="translate(0 45.49)"><tspan xml:space="preserve">Handi      spot</tspan></text><path class="cls-2" d="M60.36,10.07a14.12,14.12,0,0,0,0,7.43c.89,3.16,2.15,3,4.25,6.9,1.29,2.39,3.5,5.6,4.78,10.08,0,0,.34,1.2,1.59,7.43,1-2.06,2.6-5.22,4.64-9.09,1.68-3.19,2.53-4.79,2.79-5.24,2.37-4,3.88-5.83,4.91-9.55a13.17,13.17,0,0,0,.39-2.12c.21-1.95.61-6.19-2.12-10.08-.71-1-3.75-5-9-5.31A11.89,11.89,0,0,0,64.07,3.7,12.82,12.82,0,0,0,60.36,10.07Z"/><path class="cls-3" d="M68.24,14.3a3.19,3.19,0,0,0-2.19.53,3.64,3.64,0,0,0-1.47,2A4.28,4.28,0,0,0,64.5,19a3.88,3.88,0,0,0,1.43,2.2A4.2,4.2,0,0,0,70.2,21a3.76,3.76,0,0,0,1.07-1.47"/><circle class="cls-4" cx="70.44" cy="5.73" r="1.05"/><path class="cls-5" d="M67.89,40.54a3.2,3.2,0,0,0-.58,2.18,3.65,3.65,0,0,0,1,2.23,4.28,4.28,0,0,0,1.93,1.15,3.88,3.88,0,0,0,2.62-.2,3.24,3.24,0,0,0,1.56-2A3.26,3.26,0,0,0,74.68,42a3.76,3.76,0,0,0-.78-1.64"/><rect class="cls-6" x="69.5" y="8.08" width="2" height="10" rx="0.29" ry="0.29"/><rect class="cls-6" x="71.71" y="13.91" width="2" height="6.42" rx="0.29" ry="0.29" transform="translate(89.83 -55.59) rotate(90)"/><rect class="cls-6" x="74.92" y="16.08" width="2" height="6.42" rx="0.29" ry="0.29" transform="translate(151.83 38.57) rotate(180)"/></g></g></svg>